<svg width="606" height="128" viewBox="0 0 606 128" fill="none" xmlns="http://www.w3.org/2000/svg">
<path d="M28.1059 115.622C25.6039 113.799 23.2377 111.797 21.0259 109.631C20.8709 109.477 20.7169 109.331 20.5619 109.177C13.7091 102.331 8.51617 97.0062 5.38196 87.841L88.5109 87.841C91.2975 87.8411 94.0568 87.2923 96.6312 86.226C99.2057 85.1597 101.545 83.5968 103.515 81.6264C105.486 79.656 107.049 77.3168 108.115 74.7423C109.181 72.1678 109.73 69.4085 109.73 66.622L109.73 50.973L127.33 50.973C128.269 55.3758 128.743 59.8651 128.743 64.367C128.744 76.0569 125.512 87.5194 119.404 97.4866C113.296 107.454 104.549 115.537 94.1326 120.842C83.7158 126.147 72.0345 128.467 60.381 127.546C48.7274 126.625 37.5558 122.498 28.1019 115.622L28.1059 115.622Z" fill="#78B38A"/>
<path d="M28.1059 115.622C25.6039 113.799 23.2377 111.797 21.0259 109.631C20.8709 109.477 20.7169 109.331 20.5619 109.177C13.7091 102.331 8.51617 97.0061 5.38196 87.8409L88.5109 87.8409C110.706 88.1563 119.038 82.3179 128.743 64.3669C128.744 76.0568 125.512 87.5194 119.404 97.4866C113.296 107.454 104.549 115.537 94.1326 120.842C83.7158 126.147 72.0345 128.467 60.381 127.546C48.7274 126.625 37.5558 122.498 28.1019 115.622L28.1059 115.622Z" fill="#94DCAA"/>
<path d="M2.00403 64.367C2.00514 52.6775 5.23918 41.216 11.3485 31.25C17.4578 21.2841 26.2044 13.2019 36.621 7.89727C47.0376 2.59267 58.7184 0.272308 70.3716 1.19279C82.0248 2.11327 93.1964 6.23875 102.651 13.113C105.152 14.9401 107.518 16.9453 109.73 19.113C109.88 19.262 110.03 19.408 110.19 19.557C117.042 26.4017 122.236 31.7239 125.374 40.886L42.237 40.886C36.6096 40.8884 31.2135 43.1255 27.2352 47.1055C23.2569 51.0856 21.022 56.4826 21.022 62.11L21.022 77.759L3.42203 77.759C2.47925 73.3574 2.00395 68.8685 2.00403 64.367Z" fill="#0054B3"/>
<path d="M2.00403 64.367C2.00514 52.6775 5.23918 41.216 11.3485 31.25C17.4578 21.2841 26.2044 13.2019 36.621 7.89727C47.0376 2.59267 58.7184 0.272308 70.3716 1.19279C82.0248 2.11327 93.1964 6.23875 102.651 13.113C105.152 14.9401 107.518 16.9453 109.73 19.113C109.88 19.262 110.03 19.408 110.19 19.557C117.042 26.4017 122.236 31.7239 125.374 40.886L42.237 40.886C31.33 40.0339 10 43 2.00403 64.367Z" fill="#0070ED"/>
<circle cx="67.5" cy="63.5" r="20.5" fill="#606060"/>
<path d="M88 63.5C88 52 47 52 47 63.5C47 52.1782 56.1782 43 67.5 43C78.8218 43 88 52.1782 88 63.5Z" fill="#383838"/>
<path d="M332.181 95.2597C327.737 95.2597 323.612 94.5095 319.803 93.0092C316.052 91.4512 312.763 89.2873 309.936 86.5175C307.166 83.7477 305.002 80.5162 303.444 76.8231C301.886 73.1301 301.107 69.0908 301.107 64.7052C301.107 60.3197 301.886 56.2804 303.444 52.5873C305.002 48.8943 307.166 45.6628 309.936 42.893C312.763 40.1232 316.052 37.9881 319.803 36.4878C323.612 34.9298 327.737 34.1508 332.181 34.1508C336.162 34.1508 339.942 34.7856 343.519 36.055C347.097 37.3245 350.184 39.2576 352.781 41.8543L351.742 43.0661C348.973 40.4117 345.943 38.5363 342.654 37.44C339.365 36.3436 335.874 35.7954 332.181 35.7954C328.026 35.7954 324.16 36.5455 320.582 38.0458C317.004 39.4885 313.888 41.537 311.234 44.1914C308.58 46.788 306.502 49.8464 305.002 53.3663C303.559 56.8286 302.838 60.6082 302.838 64.7052C302.838 68.8022 303.559 72.6107 305.002 76.1307C306.502 79.5929 308.58 82.6513 311.234 85.3057C313.888 87.9024 317.004 89.9509 320.582 91.4512C324.16 92.8938 328.026 93.6151 332.181 93.6151C335.874 93.6151 339.365 93.0669 342.654 91.9705C345.943 90.8164 348.973 88.9122 351.742 86.2578L352.781 87.4696C350.184 90.0663 347.097 92.0282 343.519 93.3554C339.942 94.6249 336.162 95.2597 332.181 95.2597ZM381.738 95.2597C377.584 95.2597 373.862 94.3075 370.572 92.4033C367.341 90.4414 364.773 87.7581 362.869 84.3536C360.965 80.8913 360.013 76.9674 360.013 72.5819C360.013 68.1386 360.965 64.2436 362.869 60.8968C364.773 57.4922 367.341 54.8378 370.572 52.9336C373.862 50.9716 377.584 49.9906 381.738 49.9906C385.893 49.9906 389.615 50.9716 392.904 52.9336C396.193 54.8378 398.761 57.4922 400.608 60.8968C402.512 64.2436 403.464 68.1386 403.464 72.5819C403.464 76.9674 402.512 80.8913 400.608 84.3536C398.761 87.7581 396.193 90.4414 392.904 92.4033C389.615 94.3075 385.893 95.2597 381.738 95.2597ZM381.738 93.6151C385.547 93.6151 388.951 92.7207 391.952 90.9318C395.01 89.143 397.405 86.6617 399.136 83.488C400.867 80.3143 401.733 76.6789 401.733 72.5819C401.733 68.4272 400.867 64.7918 399.136 61.6758C397.405 58.502 395.01 56.0496 391.952 54.3185C388.951 52.5296 385.547 51.6352 381.738 51.6352C377.93 51.6352 374.525 52.5296 371.525 54.3185C368.524 56.0496 366.129 58.502 364.34 61.6758C362.609 64.7918 361.744 68.4272 361.744 72.5819C361.744 76.6789 362.609 80.3143 364.34 83.488C366.129 86.6617 368.524 89.143 371.525 90.9318C374.525 92.7207 377.93 93.6151 381.738 93.6151ZM438.636 49.9906C442.329 49.9906 445.503 50.7119 448.157 52.1546C450.812 53.5395 452.86 55.6168 454.303 58.3866C455.803 61.1564 456.553 64.561 456.553 68.6003V95H454.822V68.6003C454.822 63.0607 453.409 58.8483 450.581 55.963C447.754 53.0778 443.801 51.6352 438.723 51.6352C434.799 51.6352 431.423 52.4431 428.596 54.0588C425.768 55.6168 423.604 57.8384 422.104 60.7236C420.604 63.5512 419.854 66.8692 419.854 70.6776V95H418.122V50.2503H419.854V62.9741L419.68 62.7144C421.008 58.7905 423.287 55.7034 426.518 53.4529C429.75 51.1447 433.789 49.9906 438.636 49.9906ZM487.451 95.2597C483.931 95.2597 481.248 94.2498 479.402 92.2302C477.555 90.2105 476.632 87.5561 476.632 84.267V40.4694H478.363V83.8342C478.363 87.008 479.142 89.4315 480.7 91.105C482.258 92.7784 484.537 93.6151 487.538 93.6151C490.539 93.6151 493.02 92.6918 494.982 90.8453L496.194 92.0571C495.155 93.1535 493.828 93.9613 492.212 94.4807C490.654 95 489.067 95.2597 487.451 95.2597ZM467.976 51.8949V50.2503H493.51V51.8949H467.976ZM509.497 95V50.2503H511.228V62.6279L511.055 62.3682C512.267 58.4443 514.373 55.4148 517.374 53.2798C520.432 51.087 524.24 49.9906 528.799 49.9906V51.7218C528.741 51.7218 528.655 51.7218 528.539 51.7218C528.482 51.7218 528.395 51.7218 528.28 51.7218C522.913 51.7218 518.73 53.4529 515.729 56.9152C512.728 60.3197 511.228 64.9938 511.228 70.9373V95H509.497ZM557.81 95.2597C553.655 95.2597 549.933 94.3075 546.644 92.4033C543.412 90.4414 540.845 87.7581 538.94 84.3536C537.036 80.8913 536.084 76.9674 536.084 72.5819C536.084 68.1386 537.036 64.2436 538.94 60.8968C540.845 57.4922 543.412 54.8378 546.644 52.9336C549.933 50.9716 553.655 49.9906 557.81 49.9906C561.964 49.9906 565.686 50.9716 568.975 52.9336C572.265 54.8378 574.832 57.4922 576.679 60.8968C578.583 64.2436 579.535 68.1386 579.535 72.5819C579.535 76.9674 578.583 80.8913 576.679 84.3536C574.832 87.7581 572.265 90.4414 568.975 92.4033C565.686 94.3075 561.964 95.2597 557.81 95.2597ZM557.81 93.6151C561.618 93.6151 565.023 92.7207 568.023 90.9318C571.082 89.143 573.476 86.6617 575.207 83.488C576.939 80.3143 577.804 76.6789 577.804 72.5819C577.804 68.4272 576.939 64.7918 575.207 61.6758C573.476 58.502 571.082 56.0496 568.023 54.3185C565.023 52.5296 561.618 51.6352 557.81 51.6352C554.001 51.6352 550.597 52.5296 547.596 54.3185C544.595 56.0496 542.201 58.502 540.412 61.6758C538.681 64.7918 537.815 68.4272 537.815 72.5819C537.815 76.6789 538.681 80.3143 540.412 83.488C542.201 86.6617 544.595 89.143 547.596 90.9318C550.597 92.7207 554.001 93.6151 557.81 93.6151ZM594.194 95V30.7751H595.925V95H594.194Z" fill="#383838"/>
<path d="M150.136 95V34.4105H161.389V95H150.136ZM196.56 95.8656C191.828 95.8656 187.298 95.202 182.97 93.8748C178.642 92.4899 175.209 90.7299 172.67 88.5948L176.565 79.8526C178.989 81.7569 181.989 83.3437 185.567 84.6132C189.145 85.8827 192.809 86.5175 196.56 86.5175C199.733 86.5175 202.301 86.1712 204.263 85.4788C206.225 84.7863 207.668 83.8631 208.591 82.709C209.514 81.4972 209.976 80.1411 209.976 78.6408C209.976 76.7943 209.312 75.3228 207.985 74.2264C206.658 73.0724 204.927 72.1779 202.792 71.5432C200.714 70.8507 198.377 70.216 195.781 69.639C193.242 69.0619 190.674 68.3983 188.077 67.6482C185.538 66.8403 183.201 65.8305 181.066 64.6187C178.989 63.3492 177.286 61.6758 175.959 59.5984C174.632 57.5211 173.968 54.8667 173.968 51.6352C173.968 48.3461 174.834 45.3454 176.565 42.6333C178.354 39.8635 181.037 37.6708 184.615 36.055C188.25 34.3816 192.838 33.5449 198.377 33.5449C202.013 33.5449 205.619 34.0065 209.197 34.9298C212.775 35.8531 215.891 37.1803 218.545 38.9114L214.996 47.6536C212.284 46.0379 209.485 44.855 206.6 44.1048C203.715 43.2969 200.945 42.893 198.291 42.893C195.175 42.893 192.636 43.2681 190.674 44.0182C188.77 44.7684 187.356 45.7494 186.433 46.9612C185.567 48.173 185.134 49.5579 185.134 51.1159C185.134 52.9624 185.769 54.4627 187.038 55.6168C188.366 56.7132 190.068 57.5788 192.145 58.2135C194.28 58.8483 196.646 59.483 199.243 60.1177C201.84 60.6948 204.407 61.3584 206.946 62.1085C209.543 62.8587 211.88 63.8397 213.957 65.0515C216.093 66.2633 217.795 67.9078 219.064 69.9852C220.392 72.0625 221.055 74.6881 221.055 77.8618C221.055 81.0933 220.161 84.0939 218.372 86.8637C216.641 89.5758 213.957 91.7686 210.322 93.442C206.687 95.0577 202.099 95.8656 196.56 95.8656ZM260.603 95.8656C255.872 95.8656 251.515 95.0866 247.533 93.5285C243.552 91.9705 240.089 89.8066 237.147 87.0368C234.204 84.2093 231.924 80.9201 230.309 77.1694C228.693 73.3609 227.885 69.2062 227.885 64.7052C227.885 60.2043 228.693 56.0784 230.309 52.3277C231.924 48.5192 234.204 45.23 237.147 42.4602C240.089 39.6327 243.552 37.44 247.533 35.8819C251.515 34.3239 255.843 33.5449 260.517 33.5449C265.249 33.5449 269.576 34.3239 273.5 35.8819C277.482 37.44 280.944 39.6327 283.887 42.4602C286.83 45.23 289.109 48.5192 290.725 52.3277C292.341 56.0784 293.149 60.2043 293.149 64.7052C293.149 69.2062 292.341 73.3609 290.725 77.1694C289.109 80.9779 286.83 84.267 283.887 87.0368C280.944 89.8066 277.482 91.9705 273.5 93.5285C269.576 95.0866 265.277 95.8656 260.603 95.8656ZM260.517 85.9981C263.575 85.9981 266.403 85.4788 268.999 84.4401C271.596 83.4014 273.846 81.93 275.751 80.0257C277.655 78.0638 279.126 75.8133 280.165 73.2743C281.261 70.6776 281.81 67.8213 281.81 64.7052C281.81 61.5892 281.261 58.7617 280.165 56.2227C279.126 53.626 277.655 51.3755 275.751 49.4713C273.846 47.5094 271.596 46.009 268.999 44.9704C266.403 43.9317 263.575 43.4123 260.517 43.4123C257.458 43.4123 254.631 43.9317 252.034 44.9704C249.495 46.009 247.245 47.5094 245.283 49.4713C243.379 51.3755 241.878 53.626 240.782 56.2227C239.743 58.7617 239.224 61.5892 239.224 64.7052C239.224 67.7636 239.743 70.5911 240.782 73.1878C241.878 75.7845 243.379 78.0638 245.283 80.0257C247.187 81.93 249.438 83.4014 252.034 84.4401C254.631 85.4788 257.458 85.9981 260.517 85.9981Z" fill="#383838"/>
</svg>
